<?xml version="1.0" encoding="utf-8"?>
<svg viewBox="24.5 419.0999755859375 110.5 104" width="110.5" height="104" xmlns="http://www.w3.org/2000/svg"><g id="Layer_9" transform="matrix(1, 0, 0, 1, 0, 0)">
	<g>
		<path class="st0" d="M92.3,421.5c-2.1,0.1-4.2,0.2-6.3,0.5C88.2,421.7,90.3,421.6,92.3,421.5z" style="fill: rgb(204, 204, 204); opacity: 1;"/>
		<path class="st0" d="M106.4,460.8c21.7-3,28.6-10.1,28.6-19.7c0-5.8-0.7-22-42.7-19.6c19.1-0.8,39.9,3.9,38.8,18&#10;&#9;&#9;&#9;c-1,12.6-18.5,15.5-41.7,17.1c-28.4,2-64.1,2.8-64.5,30.2c-0.4,30,37.3,36.3,67.6,30.3l0.8,3.3l16.3-16.8L88,496.8l0.8,3.3&#10;&#9;&#9;&#9;c-22.4,6-51.9,4.2-51.2-14.5C38.3,463.4,84.8,463.8,106.4,460.8z" style="fill: rgb(204, 204, 204); opacity: 1;"/>
	</g>
</g></svg>